<svg width="298" height="298" xmlns="http://www.w3.org/2000/svg">
 <g>
  <title>Layer 1</title>
  <g id="svg_22">
   <rect transform="rotate(0.8913278579711914 112.02264404296835,152.692016601563) " rx="20" id="svg_12" height="272.113633" width="216.999992" y="16.635191" x="3.522678" stroke-width="null" fill="#e0e0e0"/>
   <rect transform="rotate(7.114171028137207 132.6117553710931,149.21514892578136) " stroke="null" rx="20" id="svg_10" height="272.113633" width="216.999992" y="13.158321" x="24.111786" stroke-opacity="null" stroke-width="null" fill="#039be5"/>
   <path transform="rotate(-172.88583374023438 138.13211059570312,141.4077606201172) " stroke="null" id="svg_5" d="m173.33186,70.816118c-9.693125,-1.067759 -19.748825,1.587802 -27.615949,7.355923c-2.943396,2.082742 -5.408397,4.736021 -7.956127,7.264066c-18.666803,18.678214 -37.345301,37.348155 -56.01781,56.020949c-1.878205,1.900456 -3.842276,3.726171 -5.513091,5.822892c-6.406836,7.801226 -9.604691,18.127931 -8.791392,28.186484c0.652979,8.79396 4.332081,17.347724 10.33783,23.812754c6.520373,7.192465 15.773614,11.825789 25.4365,12.7415c9.673727,1.028962 19.652119,-1.759249 27.486437,-7.496561c1.281995,-0.940528 2.480691,-1.978619 3.64487,-3.056077l0.056198,-0.011125c0.193127,-0.195123 0.38283,-0.385683 0.569681,-0.572533c1.251185,-1.184148 2.468995,-2.405381 3.709626,-3.596945c0.110969,-0.108117 0.211954,-0.21224 0.306663,-0.314081c1.295117,-1.243483 2.601645,-2.502086 4.098162,-4.01201c1.629451,-1.623746 1.61262,-4.498107 -0.027672,-6.108161c-2.110413,-2.130096 -4.235375,-4.251635 -6.365186,-6.362334c-1.65969,-1.684793 -4.650441,-1.640577 -6.251936,0.102126c-0.843823,0.850955 -1.687361,1.702195 -2.531184,2.552864c-2.130097,2.030539 -4.220541,4.103011 -6.399704,6.080204c-5.828598,5.070641 -14.392917,6.661581 -21.665541,4.060792c-5.386147,-1.881058 -9.978393,-5.920169 -12.506724,-11.037593c-4.163488,-8.124721 -2.553435,-18.738976 3.897903,-25.215132c20.769514,-20.819151 41.583245,-41.59437 62.374725,-62.391555c5.811766,-5.864827 15.056735,-7.886807 22.813745,-5.104017c5.408397,1.842261 9.97554,5.925303 12.512144,11.031888c4.10786,8.008616 2.608776,18.437732 -3.626614,24.938422c-10.409718,10.522969 -20.852812,21.0157 -31.278505,31.522124c-1.386118,1.438607 -3.410951,2.263032 -5.414103,2.033391c-3.018137,-0.182857 -5.665139,-2.744279 -5.983498,-5.743303c-0.312654,-2.077322 0.49494,-4.240225 2.008287,-5.678832c7.756439,-7.83175 15.505177,-15.668635 23.261901,-23.497247c1.629452,-1.623746 1.612621,-4.498107 -0.027671,-6.108161c-2.110413,-2.130096 -4.235375,-4.251921 -6.365187,-6.362619c-1.659689,-1.684793 -4.65044,-1.640292 -6.251935,0.102411c-7.117439,7.178772 -14.229743,14.360111 -21.35032,21.536029c-1.410651,1.455153 -2.91002,2.835565 -4.118701,4.470152c-4.343206,5.638038 -5.939567,13.261828 -4.298705,20.18015c1.72901,7.790101 7.610097,14.495613 15.092965,17.25929c8.517249,3.352756 18.852512,1.277716 25.39485,-5.137108c9.443801,-9.458064 18.841387,-18.963196 28.266075,-28.440658c2.149495,-2.185154 4.398548,-4.290432 6.277039,-6.722058c6.080204,-7.723633 9.09834,-17.767923 8.307292,-27.563459c-0.644706,-8.79995 -4.326661,-17.35029 -10.31558,-23.834719c-6.459896,-7.125427 -15.602738,-11.767594 -25.179758,-12.708123" fill="#e0e0e0"/>
  </g>
 </g>
</svg>
