<svg width="298" height="298" xmlns="http://www.w3.org/2000/svg">
 <g>
  <g id="svg_22">
   <rect fill="#e0e0e0" stroke-width="null" x="23.522678" y="16.635191" width="216.999992" height="272.113633" id="svg_12" rx="20" transform="rotate(0.8913278579711914 132.02264404297202,152.69201660156236) "/>
   <rect fill="#039be5" stroke-width="null" stroke-opacity="null" x="44.111786" y="13.158321" width="216.999992" height="272.113633" id="svg_10" rx="20" stroke="null" transform="rotate(7.114171028137207 152.61175537109372,149.21514892578128) "/>
   <path fill="#e0e0e0" d="m193.33186,70.81612c-9.69313,-1.06776 -19.74883,1.5878 -27.61595,7.35592c-2.9434,2.08274 -5.4084,4.73602 -7.95613,7.26407c-18.6668,18.67821 -37.3453,37.34815 -56.01781,56.02095c-1.8782,1.90045 -3.84227,3.72617 -5.51309,5.82289c-6.40683,7.80122 -9.60469,18.12793 -8.79139,28.18648c0.65298,8.79396 4.33208,17.34773 10.33783,23.81276c6.52037,7.19246 15.77361,11.82579 25.4365,12.7415c9.67373,1.02896 19.65212,-1.75925 27.48644,-7.49656c1.28199,-0.94053 2.48069,-1.97862 3.64487,-3.05608l0.0562,-0.01113c0.19312,-0.19512 0.38283,-0.38568 0.56968,-0.57253c1.25118,-1.18415 2.46899,-2.40538 3.70962,-3.59694c0.11097,-0.10812 0.21196,-0.21224 0.30667,-0.31409c1.29511,-1.24348 2.60164,-2.50208 4.09816,-4.01201c1.62945,-1.62374 1.61262,-4.4981 -0.02767,-6.10816c-2.11042,-2.13009 -4.23538,-4.25163 -6.36519,-6.36233c-1.65969,-1.68479 -4.65044,-1.64058 -6.25194,0.10213c-0.84382,0.85095 -1.68736,1.70219 -2.53118,2.55286c-2.1301,2.03054 -4.22054,4.10301 -6.3997,6.0802c-5.8286,5.07064 -14.39292,6.66158 -21.66555,4.0608c-5.38614,-1.88106 -9.97839,-5.92017 -12.50672,-11.0376c-4.16349,-8.12472 -2.55343,-18.73897 3.8979,-25.21513c20.76952,-20.81915 41.58325,-41.59437 62.37473,-62.39155c5.81176,-5.86483 15.05673,-7.88681 22.81374,-5.10402c5.4084,1.84226 9.97554,5.9253 12.51215,11.03189c4.10786,8.00861 2.60877,18.43773 -3.62662,24.93842c-10.40971,10.52297 -20.85281,21.0157 -31.2785,31.52212c-1.38612,1.43861 -3.41095,2.26303 -5.4141,2.03339c-3.01814,-0.18285 -5.66514,-2.74428 -5.9835,-5.7433c-0.31266,-2.07732 0.49494,-4.24022 2.00829,-5.67883c7.75643,-7.83175 15.50517,-15.66864 23.2619,-23.49725c1.62945,-1.62374 1.61262,-4.49811 -0.02767,-6.10816c-2.11042,-2.1301 -4.23538,-4.25192 -6.36519,-6.36262c-1.65969,-1.68479 -4.65044,-1.64029 -6.25194,0.10241c-7.11744,7.17877 -14.22974,14.36011 -21.35032,21.53603c-1.41065,1.45515 -2.91002,2.83557 -4.1187,4.47015c-4.3432,5.63804 -5.93956,13.26183 -4.2987,20.18015c1.72901,7.7901 7.61009,14.49562 15.09296,17.25929c8.51725,3.35276 18.85251,1.27772 25.39485,-5.1371c9.4438,-9.45807 18.84139,-18.9632 28.26608,-28.44066c2.14949,-2.18516 4.39855,-4.29043 6.27704,-6.72206c6.0802,-7.72363 9.09834,-17.76792 8.30729,-27.56346c-0.64471,-8.79995 -4.32666,-17.35029 -10.31558,-23.83472c-6.4599,-7.12543 -15.60274,-11.76759 -25.17976,-12.70812" id="svg_5" stroke="null" transform="rotate(-172.88583374023438 158.1321105957031,141.4077606201172) "/>
  </g>
 </g>
</svg>